<svg data-v-423bf9ae="" xmlns="http://www.w3.org/2000/svg" viewBox="0 0 424.04082115249594 60" class="font"><!----><!----><!----><g data-v-423bf9ae="" id="4eecc868-9dea-45d4-88c4-1ada5123332c" fill="black" transform="matrix(6.1224488604322,0,0,6.1224488604322,0.0000018688203908823198,-4.285714427340487)"><path d="M0.98 0.70L2.79 0.70L2.79 0.70Q3.25 0.70 3.58 1.04L3.58 1.04L3.58 1.04Q3.91 1.37 3.91 1.83L3.91 1.83L3.91 9.39L3.91 9.39Q3.91 9.84 3.58 10.17L3.58 10.17L3.58 10.17Q3.25 10.50 2.79 10.50L2.79 10.50L0.94 10.50L0 10.50L0 0.70L0.98 0.70ZM2.93 9.39L2.93 1.83L2.93 1.83Q2.93 1.69 2.79 1.69L2.79 1.69L0.98 1.69L0.98 9.52L2.79 9.52L2.79 9.52Q2.93 9.52 2.93 9.39L2.93 9.39ZM8.34 1.68L5.80 1.68L5.80 4.62L7.84 4.62L7.84 5.60L5.80 5.60L5.80 9.52L8.34 9.52L8.34 10.50L4.82 10.50L4.82 4.62L5.80 4.62L4.82 1.68L4.82 0.70L8.34 0.70L8.34 1.68ZM12.19 0.70L13.17 0.70L13.17 10.50L12.19 10.50L12.19 10.50L12.17 10.50L10.23 4.03L10.23 10.50L9.25 10.50L9.25 0.70L10.23 0.70L10.23 0.71L12.19 7.18L12.19 0.70ZM15.06 0.70L15.06 10.50L14.08 10.50L14.08 0.70L15.06 0.70ZM19.74 2.86L18.76 2.86L18.76 1.81L18.76 1.81Q18.76 1.67 18.62 1.67L18.62 1.67L17.09 1.67L17.09 1.67Q16.95 1.67 16.95 1.81L16.95 1.81L16.95 4.47L16.95 4.47Q16.95 4.56 17.04 4.59L17.04 4.59L18.62 4.59L18.62 4.59Q19.10 4.59 19.42 4.92L19.42 4.92L19.42 4.92Q19.74 5.25 19.74 5.71L19.74 5.71L19.74 9.39L19.74 9.39Q19.74 9.81 19.47 10.12L19.47 10.12L19.47 10.12Q19.21 10.43 18.80 10.50L18.80 10.50L16.91 10.50L16.91 10.50Q16.51 10.43 16.24 10.12L16.24 10.12L16.24 10.12Q15.97 9.81 15.97 9.39L15.97 9.39L15.97 8.34L16.95 8.34L16.95 9.39L16.95 9.39Q16.95 9.53 17.09 9.53L17.09 9.53L18.62 9.53L18.62 9.53Q18.76 9.53 18.76 9.39L18.76 9.39L18.76 5.71L18.76 5.71Q18.76 5.61 18.68 5.59L18.68 5.59L17.09 5.59L17.09 5.59Q16.63 5.59 16.30 5.26L16.30 5.26L16.30 5.26Q15.97 4.93 15.97 4.47L15.97 4.47L15.97 1.81L15.97 1.81Q15.97 1.39 16.24 1.08L16.24 1.08L16.24 1.08Q16.51 0.77 16.91 0.70L16.91 0.70L18.80 0.70L18.80 0.70Q19.21 0.77 19.47 1.08L19.47 1.08L19.47 1.08Q19.74 1.39 19.74 1.81L19.74 1.81L19.74 2.86ZM26.73 2.86L25.75 2.86L25.75 1.81L25.75 1.81Q25.75 1.67 25.61 1.67L25.61 1.67L24.08 1.67L24.08 1.67Q23.94 1.67 23.94 1.81L23.94 1.81L23.94 4.47L23.94 4.47Q23.94 4.56 24.02 4.59L24.02 4.59L25.61 4.59L25.61 4.59Q26.08 4.59 26.40 4.92L26.40 4.92L26.40 4.92Q26.73 5.25 26.73 5.71L26.73 5.71L26.73 9.39L26.73 9.39Q26.73 9.81 26.46 10.12L26.46 10.12L26.46 10.12Q26.19 10.43 25.79 10.50L25.79 10.50L23.90 10.50L23.90 10.50Q23.49 10.43 23.23 10.12L23.23 10.12L23.23 10.12Q22.96 9.81 22.96 9.39L22.96 9.39L22.96 8.34L23.94 8.34L23.94 9.39L23.94 9.39Q23.94 9.53 24.08 9.53L24.08 9.53L25.61 9.53L25.61 9.53Q25.75 9.53 25.75 9.39L25.75 9.39L25.75 5.71L25.75 5.71Q25.75 5.61 25.66 5.59L25.66 5.59L24.08 5.59L24.08 5.59Q23.62 5.59 23.29 5.26L23.29 5.26L23.29 5.26Q22.96 4.93 22.96 4.47L22.96 4.47L22.96 1.81L22.96 1.81Q22.96 1.39 23.23 1.08L23.23 1.08L23.23 1.08Q23.49 0.77 23.90 0.70L23.90 0.70L25.79 0.70L25.79 0.70Q26.19 0.77 26.46 1.08L26.46 1.08L26.46 1.08Q26.73 1.39 26.73 1.81L26.73 1.81L26.73 2.86ZM30.56 0.70L31.54 0.70L31.54 10.50L30.56 10.50L30.56 5.60L28.62 5.60L28.62 10.50L27.64 10.50L27.64 4.62L28.62 4.62L27.64 1.68L27.64 0.70L28.62 0.70L28.62 4.62L30.56 4.62L30.56 0.70ZM35.80 10.50L34.55 2.67L33.84 7.20L34.55 7.20L34.55 8.18L33.68 8.18L33.31 10.50L32.31 10.50L32.69 8.18L32.31 8.18L32.31 7.20L32.84 7.20L33.88 0.70L35.22 0.70L36.79 10.50L35.80 10.50ZM41.33 0.70L42.81 0.70L42.81 10.50L41.83 10.50L41.83 3.53L40.74 9.79L39.41 9.79L38.32 3.53L38.32 10.50L37.34 10.50L37.34 0.70L38.84 0.70L40.08 7.95L41.33 0.70ZM47.07 10.50L45.82 2.67L45.11 7.20L45.82 7.20L45.82 8.18L44.95 8.18L44.58 10.50L43.58 10.50L43.96 8.18L43.58 8.18L43.58 7.20L44.11 7.20L45.15 0.70L46.49 0.70L48.06 10.50L47.07 10.50ZM51.55 0.70L52.53 0.70L52.53 10.50L51.55 10.50L51.55 10.50L51.52 10.50L49.59 4.03L49.59 10.50L48.61 10.50L48.61 0.70L49.59 0.70L49.59 0.71L51.55 7.18L51.55 0.70ZM57.20 2.86L56.22 2.86L56.22 1.81L56.22 1.81Q56.22 1.67 56.08 1.67L56.08 1.67L54.56 1.67L54.56 1.67Q54.42 1.67 54.42 1.81L54.42 1.81L54.42 4.47L54.42 4.47Q54.42 4.56 54.50 4.59L54.50 4.59L56.08 4.59L56.08 4.59Q56.56 4.59 56.88 4.92L56.88 4.92L56.88 4.92Q57.20 5.25 57.20 5.71L57.20 5.71L57.20 9.39L57.20 9.39Q57.20 9.81 56.94 10.12L56.94 10.12L56.94 10.12Q56.67 10.43 56.27 10.50L56.27 10.50L54.38 10.50L54.38 10.50Q53.97 10.43 53.70 10.12L53.70 10.12L53.70 10.12Q53.44 9.81 53.44 9.39L53.44 9.39L53.44 8.34L54.42 8.34L54.42 9.39L54.42 9.39Q54.42 9.53 54.56 9.53L54.56 9.53L56.08 9.53L56.08 9.53Q56.22 9.53 56.22 9.39L56.22 9.39L56.22 5.71L56.22 5.71Q56.22 5.61 56.14 5.59L56.14 5.59L54.56 5.59L54.56 5.59Q54.10 5.59 53.77 5.26L53.77 5.26L53.77 5.26Q53.44 4.93 53.44 4.47L53.44 4.47L53.44 1.81L53.44 1.81Q53.44 1.39 53.70 1.08L53.70 1.08L53.70 1.08Q53.97 0.77 54.38 0.70L54.38 0.70L56.27 0.70L56.27 0.70Q56.67 0.77 56.94 1.08L56.94 1.08L56.94 1.08Q57.20 1.39 57.20 1.81L57.20 1.81L57.20 2.86ZM62.05 0.70L60.24 4.44L62.05 10.50L61.00 10.50L59.63 5.73L59.09 6.82L59.09 10.50L58.11 10.50L58.11 4.62L58.11 4.61L59.09 4.61L58.11 1.68L58.11 0.70L59.08 0.70L59.09 0.70L59.09 1.68L59.09 4.61L59.11 4.61L60.97 0.70L62.05 0.70ZM63.92 0.70L63.92 10.50L62.94 10.50L62.94 0.70L63.92 0.70ZM68.26 0.70L69.26 0.70L67.54 7.13L67.54 10.50L66.56 10.50L66.56 7.13L64.83 0.70L65.83 0.70L67.05 5.17L68.26 0.70Z"></path></g><!----><!----></svg>